<svg width="40" height="41" viewBox="0 0 40 41" fill="none" xmlns="http://www.w3.org/2000/svg">
<path fill-rule="evenodd" clip-rule="evenodd" d="M19.9614 0.799988C9.13207 0.799988 0.36084 9.86186 0.36084 21.05C0.36084 30.0106 5.97149 37.5791 13.7627 40.2622C14.7427 40.4394 15.1102 39.8319 15.1102 39.3003C15.1102 38.8194 15.0857 37.2247 15.0857 35.5287C10.1611 36.4653 8.88706 34.2884 8.49505 33.1494C8.27455 32.5672 7.31902 30.77 6.486 30.2891C5.79998 29.9094 4.81996 28.9728 6.4615 28.9475C8.00504 28.9222 9.10757 30.4156 9.47508 31.0231C11.2391 34.0859 14.0567 33.2253 15.1837 32.6937C15.3552 31.3775 15.8697 30.4916 16.4333 29.9853C12.0721 29.4791 7.51503 27.7325 7.51503 19.9869C7.51503 17.7847 8.27455 15.9622 9.52408 14.5447C9.32808 14.0384 8.64206 11.9628 9.72009 9.17843C9.72009 9.17843 11.3616 8.64686 15.1102 11.2541C16.6783 10.7984 18.3443 10.5706 20.0104 10.5706C21.6764 10.5706 23.3424 10.7984 24.9105 11.2541C28.6591 8.62155 30.3006 9.17843 30.3006 9.17843C31.3787 11.9628 30.6926 14.0384 30.4966 14.5447C31.7462 15.9622 32.5057 17.7594 32.5057 19.9869C32.5057 27.7578 27.9241 29.4791 23.563 29.9853C24.2735 30.6181 24.886 31.8331 24.886 33.7316C24.886 36.44 24.8615 38.6169 24.8615 39.3003C24.8615 39.8319 25.229 40.4647 26.209 40.2622C30.1001 38.9051 33.4812 36.3215 35.8766 32.875C38.2719 29.4286 39.5608 25.2929 39.5619 21.05C39.5619 9.86186 30.7906 0.799988 19.9614 0.799988Z" fill="white"/>
</svg>
