<svg width="242" height="143" viewBox="0 0 242 143" fill="none" xmlns="http://www.w3.org/2000/svg">
<path d="M241.467 139.687C241.467 139.687 234.053 143 222.933 143C211.813 143 30.1867 143 19.0667 143C7.94666 143 0.533325 139.687 0.533325 139.687L121 138.74L241.467 139.687Z" fill="url(#paint0_linear_19_23)"/>
<path d="M218.763 134.953H23.2367V5.25994C23.2367 2.64572 25.311 0.526611 27.87 0.526611H214.13C216.689 0.526611 218.763 2.64572 218.763 5.25994V134.953Z" fill="url(#paint1_linear_19_23)"/>
<path d="M23.9316 134.953V5.25991C23.9316 3.04139 25.6983 1.23657 27.87 1.23657H214.13C216.302 1.23657 218.068 3.04139 218.068 5.25991V134.953H23.9316Z" fill="black"/>
<path d="M241.467 134.953H0.533325V139.687H241.467V134.953Z" fill="url(#paint2_linear_19_23)"/>
<path d="M137.217 138.267H104.783C102.992 138.267 101.54 136.783 101.54 134.953H140.46C140.46 136.783 139.008 138.267 137.217 138.267Z" fill="url(#paint3_linear_19_23)"/>
<path d="M218.068 130.693H23.9316" stroke="black" stroke-width="0.5" stroke-miterlimit="10"/>
<path d="M108.953 1.94666L24.6267 100.873V5.25999C24.6267 3.43292 26.0816 1.94666 27.87 1.94666H108.953Z" fill="url(#paint4_linear_19_23)"/>
<path d="M121 7.15323C121.768 7.15323 122.39 6.51748 122.39 5.73323C122.39 4.94899 121.768 4.31323 121 4.31323C120.232 4.31323 119.61 4.94899 119.61 5.73323C119.61 6.51748 120.232 7.15323 121 7.15323Z" fill="#232323"/>
<defs>
<linearGradient id="paint0_linear_19_23" x1="121" y1="139.693" x2="121" y2="143.084" gradientUnits="userSpaceOnUse">
<stop offset="0.3564" stop-color="#808185"/>
<stop offset="0.5045" stop-color="#78797D"/>
<stop offset="0.5443" stop-color="#7A7B7F"/>
<stop offset="1" stop-color="#0D0C11"/>
</linearGradient>
<linearGradient id="paint1_linear_19_23" x1="121" y1="0.526611" x2="121" y2="137.888" gradientUnits="userSpaceOnUse">
<stop offset="0.000159439" stop-color="#363636"/>
<stop offset="0.0092" stop-color="#3A3A3A"/>
<stop offset="0.0982" stop-color="#404040"/>
<stop offset="0.1199" stop-color="#7D7D7D"/>
<stop offset="0.1519" stop-color="#404040"/>
<stop offset="0.2384" stop-color="#383838"/>
<stop offset="0.4063" stop-color="#404040"/>
<stop offset="0.4336" stop-color="#797979"/>
<stop offset="0.4621" stop-color="#404040"/>
<stop offset="0.5727" stop-color="#404040"/>
<stop offset="0.5998" stop-color="#626262"/>
<stop offset="0.6294" stop-color="#404040"/>
<stop offset="0.6916" stop-color="#404040"/>
<stop offset="0.7905" stop-color="#3D3D3D"/>
<stop offset="0.9015" stop-color="#404040"/>
<stop offset="0.9334" stop-color="#7E7E7E"/>
<stop offset="0.9577" stop-color="#474747"/>
</linearGradient>
<linearGradient id="paint2_linear_19_23" x1="0.533325" y1="137.32" x2="241.467" y2="137.32" gradientUnits="userSpaceOnUse">
<stop stop-color="#49484D"/>
<stop offset="0.0121" stop-color="#D3D4D9"/>
<stop offset="0.0282" stop-color="#D0D1D6"/>
<stop offset="0.0804" stop-color="#8C8D92"/>
<stop offset="0.0918" stop-color="#85868B"/>
<stop offset="0.5113" stop-color="#CBCCD2"/>
<stop offset="0.9264" stop-color="#85868B"/>
<stop offset="0.937" stop-color="#8B8C91"/>
<stop offset="0.979" stop-color="#D0D1D6"/>
<stop offset="0.994" stop-color="#D3D4D9"/>
<stop offset="1" stop-color="#454449"/>
</linearGradient>
<linearGradient id="paint3_linear_19_23" x1="101.54" y1="136.61" x2="140.46" y2="136.61" gradientUnits="userSpaceOnUse">
<stop stop-color="#161617"/>
<stop offset="0.0581" stop-color="#84848A"/>
<stop offset="0.3011" stop-color="#8F8F96"/>
<stop offset="0.524" stop-color="#ADADB5"/>
<stop offset="0.7161" stop-color="#8A8B91"/>
<stop offset="0.9495" stop-color="#7B7C81"/>
<stop offset="1" stop-color="#0D0C11"/>
</linearGradient>
<linearGradient id="paint4_linear_19_23" x1="20.7297" y1="4.35554" x2="63.8255" y2="46.5409" gradientUnits="userSpaceOnUse">
<stop offset="0.000478316" stop-color="#9E9E9E"/>
<stop offset="1" stop-color="#1D1D1B"/>
</linearGradient>
</defs>
</svg>
