<svg width="46" height="91" viewBox="0 0 46 91" fill="none" xmlns="http://www.w3.org/2000/svg">
<rect x="1" y="9" width="43" height="74" fill="url(#paint0_linear_36_37)"/>
<path d="M13.3707 0.0804962C10.4457 0.115677 7.69168 0.186038 7.24168 0.238809C4.85667 0.520254 2.98466 1.45254 1.85965 2.90374C1.27465 3.66013 0.770648 4.70675 0.545647 5.65663C0.365646 6.38663 0.347646 6.74723 0.311646 10.45C0.275646 13.6954 0.248646 14.4782 0.140645 14.6189C-0.0483556 14.8915 -0.0483556 20.2742 0.149645 20.5292C0.338646 20.7755 0.338646 23.8714 0.149645 24.1177C-0.0483556 24.3727 -0.0483556 29.7554 0.149645 30.0368C0.266646 30.1951 0.284646 33.5197 0.311646 57.381L0.329646 84.5492L0.536647 85.2968C1.10365 87.3637 2.54366 89.0172 4.46966 89.8087C5.29767 90.143 6.53967 90.4684 7.39468 90.5651C10.5267 90.9257 35.1148 90.9257 38.1748 90.5651C40.2628 90.3189 42.1168 89.5361 43.2868 88.3839C44.1238 87.566 44.6548 86.6337 45.0328 85.3408L45.2398 84.6372L45.2668 57.0116C45.2848 32.6666 45.3028 29.3684 45.4198 29.2716C45.6178 29.1133 45.6178 23.5108 45.4198 23.2382C45.3118 23.0798 45.2848 21.8485 45.2578 14.7069C45.2218 5.7006 45.2488 6.08759 44.7448 4.68916C43.8808 2.24411 41.5768 0.634591 38.3908 0.247604C37.5628 0.142062 26.2768 -0.0162506 21.6147 0.00133972C20.0037 0.0101349 16.2957 0.0453155 13.3707 0.0804962ZM43.5838 9.39457C43.7548 9.49132 43.7548 9.98385 43.7548 45.613C43.7548 73.5993 43.7278 81.77 43.6468 81.8491C43.5658 81.9283 38.8048 81.9547 22.7757 81.9547C4.01966 81.9547 1.99465 81.9371 1.86865 81.8139C1.73365 81.6908 1.72465 78.2871 1.72465 45.6482C1.72465 25.8327 1.76065 9.57048 1.79665 9.5177C1.83265 9.46493 1.92265 9.39457 1.99465 9.36819C2.25565 9.27144 43.3948 9.29783 43.5838 9.39457Z" fill="black"/>
<defs>
<linearGradient id="paint0_linear_36_37" x1="42.5" y1="78.5" x2="4.5" y2="34" gradientUnits="userSpaceOnUse">
<stop offset="0.541667"/>
<stop offset="1" stop-color="#050506" stop-opacity="0.78"/>
</linearGradient>
</defs>
</svg>
